<svg xmlns="http://www.w3.org/2000/svg" fill="none" viewBox="0 0 844.16 842.39">
<path d="M259.558 284.261C265.558 288.128 272.225 293.728 274.358 296.661C290.225 318.528 319.958 326.128 344.225 314.528C352.492 310.528 362.358 303.194 361.158 301.994C360.758 301.594 353.292 299.994 344.492 298.528C324.358 294.928 285.158 286.128 265.692 281.061C257.558 278.794 250.358 277.061 249.692 277.061C249.025 277.061 253.425 280.261 259.558 284.261Z" fill="#2567E8"/>
<path d="M383.158 1.19409C300.092 9.06076 223.425 40.1274 157.158 92.9274C139.958 106.527 105.292 141.327 91.9583 158.261C34.8917 230.527 3.025 316.927 0.225 406.661C-0.175 421.994 -0.0416667 433.061 0.625 433.061C1.29167 433.061 3.29167 430.927 5.025 428.394C12.625 417.194 38.225 395.727 58.7583 383.327C68.4917 377.461 93.6917 365.061 99.6917 363.061C103.425 361.861 103.292 359.461 99.5583 360.261C97.825 360.661 92.8917 361.194 88.4917 361.727C72.4917 363.327 54.7583 369.594 36.8917 379.861C32.0917 382.794 27.6917 385.061 27.2917 385.061C25.425 385.061 32.225 373.994 39.6917 364.794C51.825 349.727 65.025 339.194 83.6917 329.861C89.025 327.061 93.1583 324.661 92.8917 324.394C92.225 323.727 55.6917 326.394 54.3583 327.194C53.825 327.461 53.025 327.194 52.4917 326.527C50.3583 323.061 92.4917 292.527 118.492 278.794C141.425 266.527 168.892 256.394 194.892 250.394C204.625 248.127 207.558 246.927 206.492 245.727C204.225 243.061 192.758 237.327 187.558 236.394C182.225 235.327 181.025 233.727 184.892 232.527C204.225 226.794 246.625 225.327 270.492 229.594C303.158 235.327 330.358 246.394 357.825 265.194C365.292 270.261 372.492 275.594 373.825 277.061C377.292 280.927 378.892 280.394 376.225 275.994C360.358 250.794 331.425 223.994 303.158 208.261C301.825 207.461 300.492 206.261 300.225 205.594C299.692 204.127 323.425 192.394 337.158 187.327C347.692 183.461 368.892 177.861 382.492 175.461C396.092 173.061 447.825 173.194 461.158 175.461C518.625 185.861 563.692 209.594 602.492 249.861C617.025 264.927 626.758 277.861 637.425 296.394C679.292 368.528 682.758 455.861 646.492 529.861C610.892 602.794 543.025 653.461 463.825 666.394C409.692 675.194 357.825 667.461 310.092 643.594C287.825 632.394 276.225 622.527 265.158 605.594C235.025 559.461 246.092 498.794 290.492 465.594C297.692 460.261 314.358 452.261 322.492 450.394C336.225 447.061 333.292 445.994 311.825 446.794C281.025 447.994 255.825 454.927 230.492 469.461C183.692 496.127 152.492 541.727 143.825 596.261C142.225 606.527 142.092 639.327 143.558 646.394L144.625 651.061L151.558 636.927C161.958 615.727 185.825 581.194 188.225 583.727C188.492 584.127 187.692 590.661 186.358 598.394C182.758 619.461 181.158 649.594 182.625 670.927C183.692 687.861 187.158 714.127 188.492 715.461C188.758 715.727 189.425 713.727 189.825 710.927C192.358 694.794 196.492 676.527 199.292 667.861C203.425 655.594 208.892 643.727 210.625 643.727C211.292 643.727 211.825 646.127 211.825 648.927C211.825 658.661 215.958 687.061 219.292 699.727C228.225 733.994 242.492 760.794 263.558 782.661C277.025 796.661 285.292 803.194 301.425 812.927C335.025 833.061 374.225 842.394 424.892 842.394C490.892 842.394 551.425 827.861 612.225 797.461C707.292 750.127 781.025 667.727 818.225 567.727C842.358 502.794 849.425 438.794 840.358 367.061C829.292 278.661 790.225 195.861 729.158 131.327C708.092 109.194 678.092 84.1274 653.158 67.8608C595.825 30.7941 531.958 8.26081 465.158 1.72748C444.225 -0.405855 402.492 -0.539242 383.158 1.19409Z" fill="#2567E8"/>
<path d="M405.692 304.127C421.025 313.994 435.825 328.527 443.692 341.594C457.025 363.861 459.558 391.061 450.092 413.727C446.358 422.794 434.492 440.661 428.092 446.794L422.758 451.994L423.558 437.194C424.092 425.461 423.692 420.527 421.825 413.594C415.958 391.594 396.492 373.727 370.892 366.661C358.758 363.194 343.025 361.461 344.358 363.594C344.892 364.394 346.092 365.061 346.892 365.061C347.825 365.061 352.892 367.194 358.225 369.727C369.558 375.194 379.425 384.394 384.492 394.394C388.492 402.261 392.092 411.727 391.025 411.727C390.758 411.727 385.825 409.061 380.092 405.727C338.225 381.461 277.958 382.261 214.758 407.861C199.425 413.994 187.558 419.594 189.158 419.727C189.558 419.727 195.292 418.527 201.825 417.194C220.492 413.194 236.625 411.461 251.158 411.994L264.492 412.394L253.158 416.261C213.958 429.461 176.092 457.194 152.758 489.727C146.625 498.394 135.958 518.927 133.825 526.394C132.492 530.794 133.025 530.261 141.292 517.727C145.158 511.861 154.492 501.061 161.825 493.727C195.025 460.661 239.558 436.527 285.158 426.927C301.158 423.461 331.558 423.594 345.158 426.927C375.025 434.394 395.025 450.394 409.025 478.127C413.958 487.861 413.025 487.861 428.225 478.661C469.958 453.594 489.958 409.594 479.025 367.194C471.292 337.594 445.425 312.661 413.558 304.394C404.492 301.994 402.225 301.994 405.692 304.127Z" fill="#2567E8"/>
</svg>